<svg xmlns="http://www.w3.org/2000/svg" xmlns:xlink="http://www.w3.org/1999/xlink" width="1080" zoomAndPan="magnify" viewBox="0 0 810 809.999993" height="1080" preserveAspectRatio="xMidYMid meet" version="1.0"><path fill="#100f0d" d="M 542.296875 621.824219 C 533.402344 614.453125 520.214844 615.691406 512.839844 624.574219 L 425.976562 729.339844 L 425.976562 22.664062 C 425.976562 11.121094 416.613281 1.761719 405.054688 1.761719 C 393.507812 1.761719 384.136719 11.121094 384.136719 22.664062 L 384.136719 729.339844 L 297.273438 624.574219 C 289.90625 615.691406 276.710938 614.453125 267.816406 621.824219 C 258.921875 629.195312 257.691406 642.378906 265.0625 651.269531 L 388.957031 800.671875 C 392.925781 805.464844 398.832031 808.238281 405.054688 808.238281 C 411.28125 808.238281 417.1875 805.464844 421.15625 800.671875 L 545.046875 651.269531 C 552.421875 642.378906 551.191406 629.195312 542.296875 621.824219 " fill-opacity="1" fill-rule="nonzero"/></svg>