<svg xmlns="http://www.w3.org/2000/svg" xmlns:xlink="http://www.w3.org/1999/xlink" width="1080" zoomAndPan="magnify" viewBox="0 0 810 809.999993" height="1080" preserveAspectRatio="xMidYMid meet" version="1.0"><defs><clipPath id="438b9def06"><path d="M 11 44 L 807 44 L 807 733 L 11 733 Z M 11 44 " clip-rule="nonzero"/></clipPath><clipPath id="30650d7a73"><path d="M 138.132812 867.65625 L -106.519531 581.480469 L 679.613281 -90.585938 L 924.265625 195.59375 Z M 138.132812 867.65625 " clip-rule="nonzero"/></clipPath><clipPath id="3d1b8b4b91"><path d="M 138.132812 867.65625 L -106.519531 581.480469 L 679.613281 -90.585938 L 924.265625 195.59375 Z M 138.132812 867.65625 " clip-rule="nonzero"/></clipPath><clipPath id="2fceecda4a"><path d="M 138.132812 867.65625 L -106.519531 581.480469 L 679.613281 -90.585938 L 924.265625 195.59375 Z M 138.132812 867.65625 " clip-rule="nonzero"/></clipPath></defs><g clip-path="url(#438b9def06)"><g clip-path="url(#30650d7a73)"><g clip-path="url(#3d1b8b4b91)"><g clip-path="url(#2fceecda4a)"><path fill="#100f0d" d="M 505.394531 75.386719 C 505.625 90.140625 517.773438 101.914062 532.515625 101.703125 L 706.292969 99.117188 L 20.441406 685.453125 C 9.238281 695.03125 7.925781 711.886719 17.515625 723.105469 C 27.101562 734.320312 43.964844 735.652344 55.167969 726.074219 L 741.019531 139.738281 L 711.441406 311 C 708.9375 325.523438 718.683594 339.363281 733.222656 341.882812 C 747.757812 344.402344 761.578125 334.660156 764.085938 320.125 L 806.25 75.878906 C 807.609375 68.042969 805.398438 60.011719 800.230469 53.964844 C 795.0625 47.921875 787.472656 44.488281 779.519531 44.613281 L 531.6875 48.285156 C 516.9375 48.5 505.167969 60.632812 505.394531 75.386719 " fill-opacity="1" fill-rule="nonzero"/></g></g></g></g></svg>