<svg xmlns="http://www.w3.org/2000/svg" xmlns:xlink="http://www.w3.org/1999/xlink" width="1080" zoomAndPan="magnify" viewBox="0 0 810 809.999993" height="1080" preserveAspectRatio="xMidYMid meet" version="1.0"><defs><clipPath id="8a9142f95a"><path d="M 159.964844 164.175781 L 585.460938 164.175781 L 585.460938 605 L 159.964844 605 Z M 159.964844 164.175781 " clip-rule="nonzero"/></clipPath></defs><g clip-path="url(#8a9142f95a)"><path fill="#ffffff" d="M 159.964844 164.175781 L 585.460938 164.175781 L 585.460938 604.628906 L 159.964844 604.628906 Z M 159.964844 164.175781 " fill-opacity="1" fill-rule="nonzero"/></g><path fill="#1c252c" d="M 405 0 C 181.683594 0 0 181.683594 0 405 C 0 628.316406 181.683594 810 405 810 C 628.316406 810 810 628.316406 810 405 C 810 181.683594 628.316406 0 405 0 Z M 319.097656 490.941406 C 364.984375 536.828125 445.015625 536.828125 490.902344 490.941406 L 548.167969 548.207031 C 509.933594 586.441406 459.109375 607.5 405 607.5 C 350.890625 607.5 300.066406 586.441406 261.832031 548.207031 C 182.898438 469.234375 182.898438 340.765625 261.832031 261.832031 C 300.066406 223.558594 350.890625 202.5 405 202.5 C 459.109375 202.5 509.933594 223.558594 548.167969 261.792969 L 490.902344 319.058594 C 445.015625 273.171875 364.984375 273.171875 319.097656 319.058594 C 271.714844 366.445312 271.714844 443.554688 319.097656 490.941406 Z M 319.097656 490.941406 " fill-opacity="1" fill-rule="nonzero"/></svg>