<svg xmlns="http://www.w3.org/2000/svg" xmlns:xlink="http://www.w3.org/1999/xlink" width="1080" zoomAndPan="magnify" viewBox="0 0 810 809.999993" height="1080" preserveAspectRatio="xMidYMid meet" version="1.0"><defs><clipPath id="ba4be33cd7"><path d="M 126 90 L 807.214844 90 L 807.214844 810 L 126 810 Z M 126 90 " clip-rule="nonzero"/></clipPath></defs><g clip-path="url(#ba4be33cd7)"><path fill="#000000" d="M 189.601562 460.214844 C 180.453125 460.214844 174.640625 462.640625 172.253906 464.90625 C 158.414062 478.042969 156.480469 484.15625 171.054688 509.691406 C 175.804688 518.015625 181.949219 525.644531 190.992188 534.429688 C 234.691406 576.886719 281.296875 617.859375 326.375 657.492188 L 326.644531 657.730469 C 339.328125 668.875 352.445312 680.410156 365.308594 691.808594 C 369.867188 695.851562 374.417969 699.914062 378.960938 703.984375 C 404.445312 726.78125 430.78125 750.335938 459.761719 769.035156 C 484.71875 785.136719 511.023438 792.964844 540.171875 792.964844 C 556.765625 792.964844 574.585938 790.308594 593.113281 785.074219 C 630.652344 774.375 671.710938 749.65625 702.910156 718.972656 C 729.140625 693.179688 760.957031 650.910156 763.578125 596.023438 L 763.597656 595.519531 L 763.671875 594.984375 C 768.273438 561.65625 762.785156 527.171875 757.476562 493.820312 L 757.464844 493.75 C 755.199219 479.492188 752.851562 464.746094 751.273438 450.085938 C 750.582031 443.714844 749.667969 437.179688 748.78125 430.859375 L 748.761719 430.746094 C 746.214844 412.640625 743.585938 393.921875 745.351562 374.027344 C 748.511719 338.535156 763.515625 308.722656 778.023438 279.882812 L 778.164062 279.605469 C 780.925781 274.117188 783.78125 268.445312 786.480469 262.859375 C 793.933594 247.433594 790.078125 234.121094 775.886719 226.316406 C 771.675781 224 764.996094 222.730469 757.074219 222.730469 C 734.367188 222.730469 706.070312 232.792969 695.273438 244.703125 C 674.113281 268.050781 664.042969 297.097656 664.476562 333.515625 C 664.753906 356.476562 653.125 373.890625 632.578125 381.289062 C 626.664062 383.417969 620.730469 384.5 614.957031 384.5 C 600.78125 384.5 587.632812 378.199219 575.878906 365.777344 C 563.160156 352.335938 535.03125 315.664062 510.21875 283.296875 L 510.167969 283.230469 C 491.265625 258.578125 473.414062 235.300781 465.785156 226.71875 C 451.902344 211.074219 436.996094 192.039062 422.582031 173.632812 C 402.621094 148.128906 381.980469 121.761719 371.152344 114.269531 C 364.808594 109.886719 358.285156 107.664062 351.761719 107.664062 C 349.988281 107.664062 348.175781 107.828125 346.382812 108.15625 C 335.09375 110.195312 325.09375 118.097656 320.277344 128.78125 C 316.65625 136.820312 316.578125 144.097656 320.058594 151.035156 C 328.890625 167.730469 345.804688 189.867188 360.734375 209.402344 L 360.808594 209.5 C 363.273438 212.730469 365.683594 215.890625 368 218.941406 C 421.011719 288.859375 457.003906 338.820312 472.078125 363.414062 C 474.816406 367.878906 474.949219 373.449219 472.425781 377.960938 C 469.839844 382.574219 464.960938 385.445312 459.703125 385.445312 C 455.65625 385.445312 451.75 383.683594 448.988281 380.609375 C 417.71875 345.792969 335.667969 252.953125 294.605469 205.71875 C 290.539062 201.054688 286.601562 196.25 282.792969 191.605469 C 271.613281 177.96875 260.058594 163.859375 245.65625 153.847656 C 237.414062 148.121094 229.222656 145.21875 221.289062 145.21875 C 214.273438 145.21875 207.429688 147.535156 200.9375 152.109375 C 188.375 160.972656 184.308594 175.589844 190.335938 190.265625 C 198.488281 210.125 227.820312 241.714844 251.386719 267.105469 C 261.625 278.132812 270.464844 287.652344 276.722656 295.265625 C 290.796875 312.390625 305.820312 329.285156 320.355469 345.621094 C 336.855469 364.179688 353.925781 383.359375 369.863281 403.164062 C 373.355469 407.5 377.972656 412.496094 382.859375 417.785156 C 392.140625 427.820312 402.640625 439.171875 410.195312 451.089844 C 413.328125 456.03125 413.542969 462.253906 410.761719 467.320312 C 407.917969 472.492188 402.53125 475.710938 396.714844 475.710938 C 393.128906 475.710938 389.710938 474.5 386.824219 472.21875 C 367.714844 457.082031 336.277344 423.410156 313.320312 398.824219 C 306.253906 391.253906 300.152344 384.71875 295.464844 379.851562 C 287.652344 371.730469 279.871094 363.355469 272.339844 355.257812 C 252.300781 333.691406 231.601562 311.414062 209.046875 292.71875 C 198.34375 283.851562 185.625 278.761719 174.136719 278.761719 C 159.859375 278.761719 149.800781 286.425781 145.050781 300.925781 C 139.238281 318.683594 148.957031 333.394531 166.53125 351.378906 C 186.808594 372.140625 207.832031 392.914062 228.167969 413.007812 L 228.363281 413.195312 C 239.523438 424.226562 251.0625 435.636719 262.347656 446.90625 C 287.023438 471.550781 339.324219 525.371094 360.652344 552.683594 C 364.292969 557.339844 364.960938 563.5 362.398438 568.757812 C 359.820312 574.042969 354.402344 577.460938 348.597656 577.460938 C 345.148438 577.460938 341.859375 576.292969 339.085938 574.085938 C 324.878906 562.769531 305.042969 544.773438 284.039062 525.71875 C 257.621094 501.742188 230.316406 476.96875 216.519531 467.804688 C 209.261719 462.984375 199.445312 460.214844 189.601562 460.214844 Z M 540.171875 810 C 507.644531 810 478.324219 801.285156 450.53125 783.347656 C 420.425781 763.929688 393.582031 739.917969 367.621094 716.695312 C 363.078125 712.628906 358.554688 708.582031 354.015625 704.554688 C 341.179688 693.183594 328.074219 681.664062 315.402344 670.523438 L 315.144531 670.296875 C 269.898438 630.519531 223.128906 589.402344 179.125 546.648438 C 168.890625 536.707031 161.835938 527.910156 156.253906 518.136719 C 147.042969 501.996094 143.484375 491.515625 143.957031 481.964844 C 144.585938 469.304688 152.6875 459.984375 160.527344 452.546875 C 166.894531 446.503906 177.210938 443.179688 189.601562 443.179688 C 202.710938 443.179688 215.960938 446.980469 225.945312 453.613281 C 240.804688 463.488281 268.59375 488.703125 295.464844 513.082031 C 309.722656 526.019531 323.425781 538.449219 335.070312 548.53125 C 310.535156 520.199219 270.816406 479.441406 250.3125 458.964844 C 239.0625 447.726562 227.53125 436.335938 216.390625 425.320312 L 216.195312 425.128906 C 195.808594 404.984375 174.726562 384.152344 154.34375 363.285156 C 141.875 350.523438 118.664062 326.761719 128.863281 295.621094 C 135.921875 274.078125 152.425781 261.726562 174.136719 261.726562 C 189.523438 261.726562 206.210938 268.246094 219.917969 279.605469 C 243.324219 299.003906 264.410156 321.699219 284.800781 343.640625 C 292.292969 351.703125 300.027344 360.027344 307.734375 368.03125 C 312.515625 372.996094 318.65625 379.574219 325.773438 387.195312 C 346.046875 408.917969 373.058594 437.84375 391.472656 453.910156 C 385.195312 445.402344 377.40625 436.976562 370.371094 429.375 C 365.261719 423.84375 360.457031 418.640625 356.59375 413.851562 C 340.921875 394.375 323.996094 375.351562 307.632812 356.949219 C 292.988281 340.488281 277.851562 323.464844 263.566406 306.089844 C 257.628906 298.871094 248.953125 289.523438 238.90625 278.699219 C 214.402344 252.300781 183.90625 219.449219 174.582031 196.734375 C 170.171875 185.996094 169.390625 174.789062 172.324219 164.335938 C 175.28125 153.816406 181.78125 144.773438 191.121094 138.191406 C 200.546875 131.546875 210.695312 128.179688 221.289062 128.179688 C 232.765625 128.179688 244.226562 132.113281 255.375 139.859375 C 271.726562 151.230469 284.046875 166.261719 295.96875 180.800781 C 299.699219 185.355469 303.554688 190.0625 307.449219 194.542969 C 340.253906 232.261719 399.210938 299.09375 437.496094 342.148438 C 418.621094 315.046875 390.515625 276.835938 354.429688 229.234375 C 352.125 226.195312 349.722656 223.054688 347.277344 219.847656 L 347.199219 219.753906 C 331.847656 199.652344 314.445312 176.878906 304.964844 158.925781 L 304.890625 158.789062 C 299.078125 147.269531 299.027344 134.472656 304.75 121.777344 C 311.835938 106.058594 326.628906 94.410156 343.351562 91.382812 C 346.144531 90.878906 348.972656 90.621094 351.761719 90.621094 C 361.816406 90.621094 371.597656 93.863281 380.839844 100.257812 C 393.792969 109.21875 413.355469 134.199219 435.996094 163.121094 C 450.246094 181.328125 464.988281 200.148438 478.519531 215.402344 C 486.554688 224.445312 504.585938 247.964844 523.679688 272.859375 L 523.726562 272.921875 C 548.300781 304.964844 576.136719 341.269531 588.25 354.066406 C 596.660156 362.960938 605.644531 367.464844 614.957031 367.464844 C 618.761719 367.464844 622.75 366.722656 626.808594 365.261719 C 640.5 360.328125 647.632812 349.421875 647.445312 333.714844 C 646.953125 292.800781 658.472656 259.9375 682.660156 233.257812 C 696.667969 217.800781 729.351562 205.695312 757.074219 205.695312 C 767.96875 205.695312 777.3125 207.664062 784.089844 211.382812 C 806.261719 223.574219 813.222656 246.691406 801.8125 270.277344 C 799.050781 275.984375 796.167969 281.71875 793.375 287.261719 L 793.242188 287.539062 C 779.445312 314.945312 765.1875 343.289062 762.320312 375.539062 C 760.722656 393.480469 763.21875 411.21875 765.628906 428.375 L 765.648438 428.488281 C 766.554688 434.945312 767.492188 441.613281 768.210938 448.261719 C 769.746094 462.496094 772.054688 477.023438 774.285156 491.070312 L 774.300781 491.140625 C 779.792969 525.636719 785.464844 561.3125 780.578125 597.09375 C 777.589844 657.378906 743.199219 703.242188 714.851562 731.117188 C 681.714844 763.714844 637.9375 790.015625 597.761719 801.46875 C 577.707031 807.128906 558.339844 810 540.171875 810 " fill-opacity="1" fill-rule="nonzero"/></g><path fill="#000000" d="M 451.859375 21.375 C 498.144531 47.433594 535.609375 87.546875 559.082031 135.164062 C 565.585938 148.347656 570.804688 161.988281 574.949219 176.136719 C 578.214844 187.292969 595.679688 182.550781 592.394531 171.328125 C 576.617188 117.390625 544.152344 68.394531 500.589844 32.886719 C 488.160156 22.753906 474.972656 13.617188 460.988281 5.75 C 450.832031 0.03125 441.695312 15.660156 451.859375 21.375 " fill-opacity="1" fill-rule="nonzero"/><path fill="#000000" d="M 433.324219 74.734375 C 474.316406 98.804688 504.574219 139.046875 517.597656 184.675781 C 520.785156 195.859375 538.25 191.101562 535.050781 179.863281 C 523.964844 141.027344 501.410156 105.273438 470.554688 79.125 C 461.765625 71.679688 452.386719 64.933594 442.457031 59.101562 C 432.390625 53.191406 423.277344 68.832031 433.324219 74.734375 " fill-opacity="1" fill-rule="nonzero"/><path fill="#000000" d="M 4.644531 546.152344 C 28.929688 596.695312 69.167969 639.4375 117.738281 667.359375 C 131.730469 675.402344 146.464844 682.148438 161.628906 687.671875 C 166.222656 689.347656 171.539062 685.792969 172.757812 681.355469 C 174.140625 676.3125 171.046875 671.894531 166.441406 670.214844 C 117.414062 652.351562 73.648438 618.785156 43.351562 576.175781 C 34.554688 563.808594 26.847656 550.695312 20.273438 537.015625 C 18.160156 532.609375 11.867188 531.445312 7.890625 533.765625 C 3.394531 536.402344 2.523438 541.734375 4.644531 546.152344 " fill-opacity="1" fill-rule="nonzero"/><path fill="#000000" d="M 59.070312 531.097656 C 77.097656 566.925781 106.554688 596.847656 141.496094 616.386719 C 151.832031 622.171875 162.703125 627.003906 173.851562 630.980469 C 178.457031 632.621094 183.753906 629.125 184.980469 624.65625 C 186.359375 619.648438 183.285156 615.171875 178.664062 613.523438 C 133.976562 597.582031 96.027344 564.363281 74.699219 521.960938 C 72.503906 517.59375 66.351562 516.363281 62.316406 518.714844 C 57.875 521.3125 56.871094 526.71875 59.070312 531.097656 " fill-opacity="1" fill-rule="nonzero"/></svg>